<?xml version="1.0" standalone="no"?>
<!DOCTYPE svg PUBLIC "-//W3C//DTD SVG 20010904//EN"
 "http://www.w3.org/TR/2001/REC-SVG-20010904/DTD/svg10.dtd">
<svg version="1.0" xmlns="http://www.w3.org/2000/svg"
 width="512.000000pt" height="512.000000pt" viewBox="0 0 512.000000 512.000000"
 preserveAspectRatio="xMidYMid meet">
<metadata>
Created by potrace 1.16, written by Peter Selinger 2001-2019
</metadata>
<g transform="translate(0.000000,512.000000) scale(0.100000,-0.100000)"
fill="#000000" stroke="none">
<path d="M3185 5113 c-509 -62 -928 -264 -1281 -617 -318 -318 -511 -684 -595
-1131 -30 -157 -37 -494 -15 -660 90 -652 454 -1204 1023 -1554 294 -180 702
-299 1031 -301 l72 0 -2 218 -3 217 -105 6 c-238 14 -443 70 -662 181 -449
227 -771 637 -892 1133 -58 239 -53 553 13 812 105 410 381 784 748 1012 253
157 492 231 826 257 l77 6 0 214 0 214 -102 -1 c-57 -1 -116 -4 -133 -6z"/>
<path d="M3260 4263 c-179 -28 -292 -63 -434 -136 -341 -174 -588 -497 -671
-877 -25 -117 -31 -335 -11 -458 94 -586 556 -1023 1145 -1082 57 -5 109 -10
117 -10 12 0 14 39 14 220 l0 220 -45 0 c-25 0 -81 7 -123 16 -331 68 -585
314 -663 642 -30 123 -23 320 15 437 86 267 294 475 561 561 117 38 314 45
437 15 328 -78 574 -332 642 -663 9 -42 16 -98 16 -123 l0 -45 221 0 221 0 -7
78 c-28 336 -140 593 -357 818 -249 258 -580 397 -935 393 -65 -1 -129 -4
-143 -6z"/>
<path d="M424 2868 c25 -449 118 -815 301 -1193 476 -978 1463 -1630 2533
-1672 l162 -6 0 215 0 215 -122 7 c-248 14 -540 73 -754 151 -55 20 -171 71
-259 114 -829 407 -1378 1241 -1422 2162 l-6 129 -220 0 -220 0 7 -122z"/>
</g>
</svg>
